HIERARCHY
ROOT Hips
{
	OFFSET	0.00	0.00	0.00
	CHANNELS 6 Xposition Yposition Zposition Zrotation Xrotation Yrotation
	JOINT LeftUpLeg
	{
		OFFSET	 0.126116	-0.065224	 0.014019
		CHANNELS 3 Zrotation Xrotation Yrotation
		JOINT LeftLeg
		{
			OFFSET	 0.000000	 0.569914	 0.000000
			CHANNELS 3 Zrotation Xrotation Yrotation
			JOINT LeftFoot
			{
				OFFSET	 0.000000	 0.544423	 0.000000
				CHANNELS 3 Zrotation Xrotation Yrotation
				JOINT LeftToeBase
				{
					OFFSET	 0.000000	 0.207117	 0.000000
					CHANNELS 3 Zrotation Xrotation Yrotation
					End Site
					{
						OFFSET	 0.000000	 0.207117	 0.000000
					}
				}
			}
		}
	}
	JOINT RightUpLeg
	{
		OFFSET	-0.124023	-0.065224	 0.008373
		CHANNELS 3 Zrotation Xrotation Yrotation
		JOINT RightLeg
		{
			OFFSET	 0.000000	 0.570047	 0.000000
			CHANNELS 3 Zrotation Xrotation Yrotation
			JOINT RightFoot
			{
				OFFSET	 0.000000	 0.544354	 0.000000
				CHANNELS 3 Zrotation Xrotation Yrotation
				JOINT RightToeBase
				{
					OFFSET	 0.000000	 0.207540	 0.000000
					CHANNELS 3 Zrotation Xrotation Yrotation
					End Site
					{
						OFFSET	 0.000000	 0.207540	 0.000000
					}
				}
			}
		}
	}
	JOINT Spine
	{
		OFFSET	 0.000184	 0.117403	 0.007763
		CHANNELS 3 Zrotation Xrotation Yrotation
		JOINT Spine1
		{
			OFFSET	 0.000000	 0.137269	 0.000000
			CHANNELS 3 Zrotation Xrotation Yrotation
			JOINT Spine2
			{
				OFFSET	 0.000000	 0.156879	 0.000000
				CHANNELS 3 Zrotation Xrotation Yrotation
				JOINT LeftShoulder
				{
					OFFSET	 0.080501	 0.160143	 0.002496
					CHANNELS 3 Zrotation Xrotation Yrotation
					JOINT LeftArm
					{
						OFFSET	 0.000000	 0.164363	 0.000000
						CHANNELS 3 Zrotation Xrotation Yrotation
						JOINT LeftForeArm
						{
							OFFSET	 0.000000	 0.364576	 0.000000
							CHANNELS 3 Zrotation Xrotation Yrotation
							JOINT LeftHand
							{
								OFFSET	 0.000000	 0.360812	 0.000000
								CHANNELS 3 Zrotation Xrotation Yrotation
								JOINT LeftHandIndex1
								{
									OFFSET	 0.000000	 0.086006	 0.000000
									CHANNELS 3 Zrotation Xrotation Yrotation
									JOINT LeftHandIndex2
									{
										OFFSET	 0.000000	 0.047237	 0.000000
										CHANNELS 3 Zrotation Xrotation Yrotation
										JOINT LeftHandIndex3
										{
											OFFSET	-0.004284	 0.038165	 0.000551
											CHANNELS 3 Zrotation Xrotation Yrotation
											End Site
											{
												OFFSET	-0.004284	 0.038165	 0.000551
											}
										}
									}
								}
							}
						}
					}
				}
				JOINT Neck
				{
					OFFSET	 0.000000	 0.176489	 0.000000
					CHANNELS 3 Zrotation Xrotation Yrotation
					JOINT Head
					{
						OFFSET	 0.000000	 0.077941	 0.001747
						CHANNELS 3 Zrotation Xrotation Yrotation
						End Site
						{
							OFFSET	 0.000000	 0.077941	 0.001747
						}
					}
				}
				JOINT RightShoulder
				{
					OFFSET	-0.080363	 0.159706	-0.000306
					CHANNELS 3 Zrotation Xrotation Yrotation
					JOINT RightArm
					{
						OFFSET	 0.000000	 0.164196	 0.000000
						CHANNELS 3 Zrotation Xrotation Yrotation
						JOINT RightForeArm
						{
							OFFSET	 0.000000	 0.365611	 0.000000
							CHANNELS 3 Zrotation Xrotation Yrotation
							JOINT RightHand
							{
								OFFSET	 0.000000	 0.360648	 0.000000
								CHANNELS 3 Zrotation Xrotation Yrotation
								JOINT RightHandIndex1
								{
									OFFSET	 0.000000	 0.069977	 0.000000
									CHANNELS 3 Zrotation Xrotation Yrotation
									JOINT RightHandIndex2
									{
										OFFSET	 0.000000	 0.052305	 0.000000
										CHANNELS 3 Zrotation Xrotation Yrotation
										JOINT RightHandIndex3
										{
											OFFSET	 0.009002	 0.042196	 0.000782
											CHANNELS 3 Zrotation Xrotation Yrotation
											End Site
											{
												OFFSET	 0.009002	 0.042196	 0.000782
											}
										}
									}
								}
							}
						}
					}
				}
			}
		}
	}
}
MOTION
Frames:    12
Frame Time: 0.03333334
-0.017489	 1.255318	 0.114967	 4.759312	 0.267723	 174.033400	 175.118500	 15.496500	 37.592140	 3.130712	-30.640230	 1.463016	 53.480070	 48.980530	-69.560930	 4.912825	 28.009670	-6.307248	-165.449800	-2.032192	-30.258910	-0.532626	-6.156254	 2.078859	-51.298360	 50.381750	 49.382530	-0.381507	 31.177790	 1.638012	 1.332005	 3.983108	-9.755223	 9.815403	 8.514057	-5.507254	-8.429678	-6.537673	 17.949900	-112.538300	 3.096975	 88.309860	-11.621340	 51.535020	 36.504230	 31.244650	-1.566586	 1.004780	-15.094750	-6.843624	-77.655950	-7.985720	 12.535240	-5.841022	-7.228883	 12.658080	 2.803202	 4.963066	-4.014628	-0.346955	 1.492606	-13.875880	 1.366182	-2.016816	 9.026190	-23.954240	 109.094500	 0.698411	-88.607230	-13.523280	 68.939060	 12.889140	-5.089056	-0.470271	 41.297040	-13.077310	 9.274336	-87.164090	 1.987763	 8.233719	 8.960015	 15.202990	 20.263620	-6.348196	-8.239867	-2.131385	 0.447455
-0.017669	 1.254754	 0.114584	 4.662312	 0.178172	 174.213500	 174.916500	 15.652460	 37.809130	 3.147835	-30.777410	 1.546435	 53.548420	 48.954940	-69.685870	 4.912830	 28.009700	-6.307222	-165.182200	-1.423547	-30.084040	-0.644644	-7.437639	 1.882457	-52.014280	 50.685010	 50.427780	-0.397156	 31.196910	 1.653531	 1.297594	 4.009088	-9.758547	 9.457150	 8.210570	-5.436152	-8.020665	-6.192965	 17.885810	-112.449300	 2.985589	 88.294660	-11.496830	 51.883320	 36.211150	 30.930150	-1.552257	 0.992219	-15.252170	-7.000999	-76.511580	-7.883205	 12.619220	-5.866494	-7.229348	 12.638590	 2.800541	 4.963066	-4.014628	-0.346955	 1.400764	-13.736430	 1.413243	-1.970149	 9.422921	-24.242160	 108.983300	 0.783396	-88.650230	-13.301010	 68.825490	 13.045040	-5.093152	-0.470656	 41.024910	-12.366950	 9.125401	-87.276500	 1.899601	 7.995834	 8.957650	 15.203360	 20.316390	-6.362638	-8.239867	-2.131385	 0.447455
-0.018008	 1.253824	 0.113857	 4.524446	 0.050633	 174.468200	 174.609200	 15.879890	 38.123890	 3.177825	-31.016360	 1.665617	 53.676130	 48.934180	-69.900390	 4.912838	 28.009740	-6.307185	-164.851000	-0.619915	-29.840530	-0.792838	-9.121223	 1.612361	-52.997640	 51.077140	 51.844770	-0.419415	 31.224080	 1.675606	 1.253940	 4.050395	-9.741475	 8.930409	 7.783050	-5.321960	-7.433396	-5.704961	 17.788130	-112.323000	 2.827209	 88.273350	-11.369580	 52.350090	 35.829120	 30.472540	-1.531303	 0.974149	-15.394270	-7.231451	-74.837840	-7.737364	 12.738510	-5.902982	-7.230012	 12.610890	 2.796759	 4.963066	-4.014628	-0.346955	 1.270101	-13.538340	 1.480486	-1.899289	 9.986183	-24.653820	 108.825500	 0.904309	-88.711070	-12.809150	 68.646230	 13.102940	-5.102376	-0.471492	 40.638700	-11.394090	 8.965902	-87.377010	 1.774342	 7.657673	 8.953656	 15.203890	 20.391390	-6.383178	-8.239867	-2.131385	 0.447455
-0.018580	 1.252405	 0.112613	 4.341554	-0.120324	 174.803900	 174.171700	 16.188930	 38.550220	 3.225706	-31.395820	 1.823211	 53.890040	 48.931020	-70.237410	 4.912849	 28.009810	-6.307136	-164.481600	 0.361159	-29.525510	-0.974510	-11.163370	 1.271259	-54.255870	 51.545120	 53.628970	-0.448836	 31.259940	 1.704785	 1.205036	 4.110374	-9.684043	 8.204548	 7.222343	-5.151635	-6.647524	-5.063170	 17.647140	-112.156200	 2.618024	 88.245770	-11.264680	 52.924600	 35.366570	 29.839040	-1.502217	 0.949708	-15.446880	-7.544195	-72.550190	-7.544553	 12.895890	-5.951668	-7.230892	 12.574300	 2.791764	 4.963066	-4.014628	-0.346955	 1.097352	-13.276970	 1.569911	-1.797565	 10.728620	-25.201680	 108.617200	 1.064272	-88.790910	-6.858253	 68.905840	 8.242219	-8.935723	-0.823455	 40.087910	-8.561789	 7.753304	-87.599900	 1.609030	 7.211098	 8.947243	 15.204650	 20.490440	-6.410315	-8.239867	-2.131385	 0.447455
-0.019392	 1.250527	 0.110742	 4.096007	-0.346738	 175.228700	 173.591600	 16.575330	 39.090430	 3.288420	-31.887980	 2.013750	 54.180290	 48.948390	-70.677230	 4.912862	 28.009870	-6.307075	-164.139800	 1.469903	-29.145470	-1.177708	-13.413620	 0.873989	-55.742260	 52.039730	 55.698420	-0.485167	 31.304160	 1.740815	 1.139943	 4.178366	-9.572077	 7.251052	 6.527289	-4.924486	-5.656155	-4.272606	 17.454450	-111.950700	 2.359894	 88.212580	-11.157660	 53.583220	 34.800030	 28.960070	-1.461540	 0.917672	-15.307940	-7.937141	-69.624280	-7.306393	 13.089780	-6.012505	-7.231981	 12.529180	 2.785606	 4.963066	-4.014628	-0.346955	 0.883965	-12.954980	 1.681187	-1.659300	 11.641760	-25.884270	 108.360600	 1.261947	-88.888560	-1.029133	 68.866840	 3.664775	-12.276090	-1.127162	 39.408460	-5.721295	 6.779814	-87.615790	 1.405272	 6.660298	 8.937553	 15.205650	 20.612590	-6.443810	-8.239867	-2.131385	 0.447455
-0.020504	 1.248143	 0.108200	 3.807493	-0.619878	 175.726300	 172.872800	 17.029480	 39.743440	 3.370627	-32.525360	 2.235018	 54.571890	 48.993660	-71.253680	 4.912877	 28.009960	-6.307003	-163.839800	 2.656258	-28.704130	-1.395849	-15.782940	 0.436192	-57.414150	 52.545550	 57.983900	-0.528009	 31.356200	 1.783305	 1.083106	 4.266134	-9.385880	 6.074307	 5.713601	-4.637489	-4.470022	-3.350651	 17.200490	-111.709000	 2.055794	 88.174700	-11.001150	 54.322010	 34.093120	 27.811800	-1.407951	 0.877876	-14.931070	-8.400606	-66.057450	-7.025437	 13.317770	-6.085267	-7.233270	 12.476050	 2.778353	 4.963066	-4.014628	-0.346955	 0.632214	-12.576330	 1.813616	-1.478313	 12.712760	-26.697990	 108.058800	 1.495260	-89.002430	 4.624454	 68.561730	-0.576646	-15.209130	-1.390636	 38.615490	-2.858299	 6.043747	-87.417790	 1.165481	 6.011715	 8.923632	 15.206920	 20.756430	-6.483289	-8.239867	-2.131385	 0.447455
-0.021893	 1.245377	 0.105070	 3.477415	-0.943525	 176.297600	 172.024000	 17.537850	 40.512910	 3.468342	-33.271030	 2.482832	 55.046680	 49.057900	-71.945140	 4.912895	 28.010060	-6.306921	-163.619800	 3.874707	-28.199410	-1.618091	-18.140850	-0.030618	-59.204510	 53.023080	 60.388220	-0.577533	 31.416220	 1.832423	 1.041941	 4.375766	-9.118168	 4.660842	 4.778130	-4.300602	-3.082969	-2.301355	 16.870930	-111.430400	 1.704709	 88.132630	-10.652300	 55.167940	 33.121320	 26.334360	-1.338271	 0.829754	-14.308500	-8.926279	-61.820060	-6.700525	 13.580430	-6.170744	-7.234765	 12.414750	 2.769984	 4.963066	-4.014628	-0.346955	 0.341044	-12.140090	 1.968308	-1.244993	 13.941860	-27.650610	 107.711100	 1.765260	-89.132320	 9.844878	 68.057180	-4.238565	-17.727950	-1.614023	 37.715320	 0.048551	 5.513419	-87.022530	 0.888904	 5.263347	 8.904201	 15.208530	 20.922410	-6.528894	-8.239867	-2.131385	 0.447455
-0.023479	 1.242487	 0.101592	 3.102324	-1.327014	 176.954300	 171.059700	 18.085790	 41.412720	 3.572360	-34.051100	 2.753364	 55.560180	 49.118800	-72.703290	 4.912915	 28.010170	-6.306826	-163.522800	 5.087883	-27.617990	-1.831353	-20.345080	-0.520336	-61.022950	 53.426650	 62.791780	-0.634916	 31.485570	 1.889336	 1.021750	 4.510181	-8.767965	 2.980721	 3.700414	-3.933780	-1.467747	-1.111865	 16.441390	-111.108500	 1.298429	 88.086070	-9.893137	 56.188030	 31.681690	 24.509660	-1.251017	 0.773760	-13.535040	-9.518865	-56.820400	-6.323856	 13.883560	-6.271616	-7.236505	 12.343850	 2.760308	 4.963066	-4.014628	-0.346955	 0.003437	-11.636630	 2.149694	-0.942467	 15.352430	-28.770760	 107.309800	 2.078459	-89.280520	 14.297370	 67.483890	-7.004037	-19.840140	-1.798890	 36.696060	 3.109266	 5.067053	-86.463700	 0.569162	 4.398146	 8.877239	 15.210570	 21.114340	-6.581702	-8.239867	-2.131385	 0.447455
-0.024972	 1.240156	 0.098519	 2.701818	-1.756081	 177.671600	 170.075500	 18.614880	 42.414790	 3.658044	-34.683030	 3.022018	 55.993110	 49.120610	-73.394260	 4.912938	 28.010300	-6.306721	-163.602000	 6.173745	-26.986200	-2.001819	-22.063280	-0.995485	-62.600720	 53.665300	 64.855490	-0.698138	 31.561760	 1.952042	 1.023818	 4.665049	-8.372220	 1.121550	 2.521044	-3.598241	 0.299767	 0.160945	 15.910770	-110.755200	 0.851579	 88.037550	-8.568207	 57.405270	 29.665450	 22.647860	-1.160721	 0.718435	-12.976580	-10.167010	-51.283170	-5.908607	 14.216010	-6.385021	-7.238431	 12.265920	 2.749671	 4.963066	-4.014628	-0.346955	-0.368833	-11.084450	 2.352183	-0.569407	 16.887430	-30.025480	 106.869400	 2.423881	-89.440870	 17.402960	 67.100560	-8.440401	-21.572620	-1.948622	 35.598410	 6.392858	 4.443719	-85.820070	 0.217663	 3.447445	 8.842063	 15.213030	 21.325320	-6.639840	-8.239867	-2.131385	 0.447455
-0.034044	 1.237459	 0.087736	 1.816796	-3.345920	-179.782800	 167.261300	 20.217250	 45.141720	 3.847219	-36.044540	 3.385566	 54.275190	 49.648710	-73.530830	 5.060854	 29.851850	-5.761436	-164.596200	 8.486330	-24.818660	-2.247283	-24.464830	-1.457763	-65.127990	 54.694780	 68.554140	-0.802729	 31.549220	 2.060570	 0.787357	 4.831646	-7.152092	-1.340301	 0.929329	-2.652180	 1.680111	 1.857504	 15.126290	-110.743200	-1.389110	 87.353100	-6.720192	 57.420030	 26.683240	 23.969410	-1.229539	 0.826724	-13.510190	-11.481640	-42.560740	-5.366048	 14.927310	-6.525231	-7.255369	 12.287660	 2.761100	 4.963066	-4.014628	-0.346955	-0.452375	-10.359190	 2.166527	 0.650029	 17.668610	-32.232160	 105.660600	 4.676454	-90.091690	 21.365030	 68.074550	-7.823392	-23.656420	-2.126486	 34.059240	 7.666956	 0.514513	-86.408560	 2.859884	-4.612694	 8.666076	 14.719640	 19.613400	-6.010163	-8.239867	-2.131385	 0.447455
-0.043552	 1.236740	 0.077161	 0.842935	-5.349047	-176.788300	 164.034500	 21.813870	 48.515840	 3.997442	-37.092890	 3.700706	 52.030690	 50.303010	-73.662060	 5.224577	 32.216790	-5.054240	-166.100500	 10.927370	-22.207880	-2.442981	-26.316220	-1.854964	-67.467830	 55.688000	 72.115350	-0.915767	 31.507670	 2.178833	 0.380482	 4.929406	-5.869884	-3.962101	-0.454238	-1.753834	 2.903450	 3.428192	 14.269400	-110.881900	-4.114653	 86.484120	-3.824633	 57.600870	 22.765780	 26.596810	-1.356716	 0.994723	-15.122720	-13.237490	-33.299860	-4.804307	 15.728540	-6.674625	-7.276480	 12.341430	 2.779318	 4.963066	-4.014628	-0.346955	-0.432100	-9.611777	 1.860801	 2.088773	 18.118290	-34.665230	 104.282800	 7.468724	-90.816660	 23.126870	 70.070240	-4.625544	-26.100060	-2.331201	 32.520740	 9.229439	-5.254560	-87.825450	 6.441432	-14.664500	 9.010986	 14.123550	 17.339120	-5.215818	-8.239867	-2.131385	 0.447455
-0.050188	 1.229626	 0.058270	 0.254721	-8.131599	-171.430100	 157.950500	 24.282210	 55.392970	 5.098132	-43.944020	 5.321026	 50.151640	 53.069450	-77.318330	 4.666224	 34.975650	-5.458460	-167.864300	 13.706500	-16.531190	-2.671154	-28.402200	-2.826971	-71.656850	 56.482690	 77.632290	-0.957963	 29.925330	 2.288691	-0.104864	 5.689897	-3.582045	-7.552881	-1.860358	-0.145277	 4.122066	 6.310637	 12.691080	-109.895300	-4.342829	 86.828470	 2.359531	 58.433710	 14.851720	 26.742910	-1.361689	 1.091459	-13.447310	-16.326860	-20.815800	-4.214954	 15.406410	-6.959256	-7.298431	 12.383070	 2.796675	 4.963066	-4.014628	-0.346955	 0.945668	-9.763122	 1.029200	 4.494545	 17.694940	-38.999970	 102.499400	 9.690331	-90.332090	 25.773900	 71.895720	-3.706222	-29.706290	-2.625490	 30.825580	 11.641480	-9.362818	-83.049210	 9.878746	-24.585810	 9.964687	 13.953080	 17.159580	-5.121514	-8.239867	-2.131385	 0.447455
